<svg xmlns="http://www.w3.org/2000/svg" viewBox="0 0 24 24" fill="none">
  <defs>
    <linearGradient id="g" x1="0" y1="0" x2="1" y2="1">
      <stop offset="0" stop-color="#22d3ee" />
      <stop offset="1" stop-color="#0ea5b7" />
    </linearGradient>
  </defs>
  <path fill="url(#g)" d="M12 2.5c-2 0-3.2 1-5 1S3.5 2.5 3.5 6c0 2.4.7 4 1.4 6.6.5 1.9.6 4 .9 5.6.3 1.6.7 3.3 1.8 3.3 1.3 0 1.3-2.2 1.6-3.9.2-1.3.4-2.7 1.3-2.7s1.1 1.4 1.3 2.7c.3 1.7.3 3.9 1.6 3.9 1.1 0 1.5-1.7 1.8-3.3.3-1.6.4-3.7.9-5.6C18.8 10 19.5 8.4 19.5 6c0-3.5-1.7-2.5-3.5-2.5s-2-1-4-1Z"/>
</svg>
